# xmcd
#
# Track frame offsets: 
#        183
#        21313
#        38298
#        77343
#        98428
#        117630
#        141000
#        155648
#        171315
#        187483
#
# Disc length: 2662 seconds
#
# Revision: 3
# Processed by: cddbd v1.5.2PL0 Copyright (c) Steve Scherf et al.
# Submitted via: ExactAudioCopy v0.99pb5
#
DISCID=7d0a640a
DTITLE=Charlie Musselwhite - Ace Of Harps
DYEAR=1900
DGENRE=Blues
TTITLE0=The Blues Overtook Me
TTITLE1=Mean Ole Frisco
TTITLE2=She May Be Your Woman
TTITLE3=Kiddeo
TTITLE4=River Hip Mama
TTITLE5=Yesterdays
TTITLE6=Leaving Your Town
TTITLE7=Hangin' On
TTITLE8=Hello, Pretty Baby
TTITLE9=My Road Lies in Darkness
EXTD=
EXTT0=
EXTT1=
EXTT2=
EXTT3=
EXTT4=
EXTT5=
EXTT6=
EXTT7=
EXTT8=
EXTT9=
PLAYORDER=
